<svg width="1680" height="624" viewBox="0 0 1680 624" fill="none" xmlns="http://www.w3.org/2000/svg">
<path d="M1680 0H0V633H1680V0Z" fill="black"/>
<circle cx="807" cy="363" r="85" fill="url(#paint0_linear_1_2520)"/>
<circle cx="959" cy="272" r="59" fill="url(#paint1_linear_1_2520)"/>
<circle cx="1190" cy="331" r="95" fill="url(#paint2_linear_1_2520)"/>
<circle cx="1142" cy="105" r="48" fill="url(#paint3_linear_1_2520)"/>
<g opacity="0.2">
<path d="M1314.3 357.09C1317.23 357.09 1319.61 355.055 1319.61 352.545C1319.61 350.035 1317.23 348 1314.3 348C1311.37 348 1309 350.035 1309 352.545C1309 355.055 1311.37 357.09 1314.3 357.09Z" fill="white"/>
<path d="M1355.55 357.09C1358.48 357.09 1360.85 355.055 1360.85 352.545C1360.85 350.035 1358.48 348 1355.55 348C1352.62 348 1350.25 350.035 1350.25 352.545C1350.25 355.055 1352.62 357.09 1355.55 357.09Z" fill="white"/>
<path d="M1396.8 357.09C1399.72 357.09 1402.1 355.055 1402.1 352.545C1402.1 350.035 1399.72 348 1396.8 348C1393.87 348 1391.49 350.035 1391.49 352.545C1391.49 355.055 1393.87 357.09 1396.8 357.09Z" fill="white"/>
<path d="M1438.04 357.09C1440.97 357.09 1443.34 355.055 1443.34 352.545C1443.34 350.035 1440.97 348 1438.04 348C1435.11 348 1432.74 350.035 1432.74 352.545C1432.74 355.055 1435.11 357.09 1438.04 357.09Z" fill="white"/>
<path d="M1479.29 357.09C1482.21 357.09 1484.59 355.055 1484.59 352.545C1484.59 350.035 1482.21 348 1479.29 348C1476.36 348 1473.98 350.035 1473.98 352.545C1473.98 355.055 1476.36 357.09 1479.29 357.09Z" fill="white"/>
<path d="M1520.53 357.09C1523.46 357.09 1525.83 355.055 1525.83 352.545C1525.83 350.035 1523.46 348 1520.53 348C1517.6 348 1515.23 350.035 1515.23 352.545C1515.23 355.055 1517.6 357.09 1520.53 357.09Z" fill="white"/>
<path d="M1314.3 387.394C1317.23 387.394 1319.61 385.359 1319.61 382.849C1319.61 380.339 1317.23 378.304 1314.3 378.304C1311.37 378.304 1309 380.339 1309 382.849C1309 385.359 1311.37 387.394 1314.3 387.394Z" fill="white"/>
<path d="M1355.55 387.394C1358.48 387.394 1360.85 385.359 1360.85 382.849C1360.85 380.339 1358.48 378.304 1355.55 378.304C1352.62 378.304 1350.25 380.339 1350.25 382.849C1350.25 385.359 1352.62 387.394 1355.55 387.394Z" fill="white"/>
<path d="M1396.8 387.394C1399.72 387.394 1402.1 385.359 1402.1 382.849C1402.1 380.339 1399.72 378.304 1396.8 378.304C1393.87 378.304 1391.49 380.339 1391.49 382.849C1391.49 385.359 1393.87 387.394 1396.8 387.394Z" fill="white"/>
<path d="M1438.04 387.394C1440.97 387.394 1443.34 385.359 1443.34 382.849C1443.34 380.339 1440.97 378.304 1438.04 378.304C1435.11 378.304 1432.74 380.339 1432.74 382.849C1432.74 385.359 1435.11 387.394 1438.04 387.394Z" fill="white"/>
<path d="M1479.29 387.394C1482.21 387.394 1484.59 385.359 1484.59 382.849C1484.59 380.339 1482.21 378.304 1479.29 378.304C1476.36 378.304 1473.98 380.339 1473.98 382.849C1473.98 385.359 1476.36 387.394 1479.29 387.394Z" fill="white"/>
<path d="M1520.53 387.394C1523.46 387.394 1525.83 385.359 1525.83 382.849C1525.83 380.339 1523.46 378.304 1520.53 378.304C1517.6 378.304 1515.23 380.339 1515.23 382.849C1515.23 385.359 1517.6 387.394 1520.53 387.394Z" fill="white"/>
<path d="M1314.3 417.697C1317.23 417.697 1319.61 415.662 1319.61 413.151C1319.61 410.641 1317.23 408.606 1314.3 408.606C1311.37 408.606 1309 410.641 1309 413.151C1309 415.662 1311.37 417.697 1314.3 417.697Z" fill="white"/>
<path d="M1355.55 417.697C1358.48 417.697 1360.85 415.662 1360.85 413.151C1360.85 410.641 1358.48 408.606 1355.55 408.606C1352.62 408.606 1350.25 410.641 1350.25 413.151C1350.25 415.662 1352.62 417.697 1355.55 417.697Z" fill="white"/>
<path d="M1396.8 417.697C1399.72 417.697 1402.1 415.662 1402.1 413.151C1402.1 410.641 1399.72 408.606 1396.8 408.606C1393.87 408.606 1391.49 410.641 1391.49 413.151C1391.49 415.662 1393.87 417.697 1396.8 417.697Z" fill="white"/>
<path d="M1438.04 417.697C1440.97 417.697 1443.34 415.662 1443.34 413.151C1443.34 410.641 1440.97 408.606 1438.04 408.606C1435.11 408.606 1432.74 410.641 1432.74 413.151C1432.74 415.662 1435.11 417.697 1438.04 417.697Z" fill="white"/>
<path d="M1479.29 417.697C1482.21 417.697 1484.59 415.662 1484.59 413.151C1484.59 410.641 1482.21 408.606 1479.29 408.606C1476.36 408.606 1473.98 410.641 1473.98 413.151C1473.98 415.662 1476.36 417.697 1479.29 417.697Z" fill="white"/>
<path d="M1520.53 417.697C1523.46 417.697 1525.83 415.662 1525.83 413.151C1525.83 410.641 1523.46 408.606 1520.53 408.606C1517.6 408.606 1515.23 410.641 1515.23 413.151C1515.23 415.662 1517.6 417.697 1520.53 417.697Z" fill="white"/>
<path d="M1314.3 448C1317.23 448 1319.61 445.965 1319.61 443.454C1319.61 440.944 1317.23 438.909 1314.3 438.909C1311.37 438.909 1309 440.944 1309 443.454C1309 445.965 1311.37 448 1314.3 448Z" fill="white"/>
<path d="M1355.55 448C1358.48 448 1360.85 445.965 1360.85 443.454C1360.85 440.944 1358.48 438.909 1355.55 438.909C1352.62 438.909 1350.25 440.944 1350.25 443.454C1350.25 445.965 1352.62 448 1355.55 448Z" fill="white"/>
<path d="M1396.8 448C1399.72 448 1402.1 445.965 1402.1 443.454C1402.1 440.944 1399.72 438.909 1396.8 438.909C1393.87 438.909 1391.49 440.944 1391.49 443.454C1391.49 445.965 1393.87 448 1396.8 448Z" fill="white"/>
<path d="M1438.04 448C1440.97 448 1443.34 445.965 1443.34 443.454C1443.34 440.944 1440.97 438.909 1438.04 438.909C1435.11 438.909 1432.74 440.944 1432.74 443.454C1432.74 445.965 1435.11 448 1438.04 448Z" fill="white"/>
<path d="M1479.29 448C1482.21 448 1484.59 445.965 1484.59 443.454C1484.59 440.944 1482.21 438.909 1479.29 438.909C1476.36 438.909 1473.98 440.944 1473.98 443.454C1473.98 445.965 1476.36 448 1479.29 448Z" fill="white"/>
<path d="M1520.53 448C1523.46 448 1525.83 445.965 1525.83 443.454C1525.83 440.944 1523.46 438.909 1520.53 438.909C1517.6 438.909 1515.23 440.944 1515.23 443.454C1515.23 445.965 1517.6 448 1520.53 448Z" fill="white"/>
</g>
<g opacity="0.2">
<path d="M43.8027 41.0903C46.7313 41.0903 49.1054 39.0553 49.1054 36.5451C49.1054 34.0349 46.7313 32 43.8027 32C40.8741 32 38.5 34.0349 38.5 36.5451C38.5 39.0553 40.8741 41.0903 43.8027 41.0903Z" fill="white"/>
<path d="M85.0483 41.0903C87.9769 41.0903 90.351 39.0553 90.351 36.5451C90.351 34.0349 87.9769 32 85.0483 32C82.1197 32 79.7456 34.0349 79.7456 36.5451C79.7456 39.0553 82.1197 41.0903 85.0483 41.0903Z" fill="white"/>
<path d="M126.296 41.0903C129.225 41.0903 131.599 39.0553 131.599 36.5451C131.599 34.0349 129.225 32 126.296 32C123.368 32 120.994 34.0349 120.994 36.5451C120.994 39.0553 123.368 41.0903 126.296 41.0903Z" fill="white"/>
<path d="M167.54 41.0903C170.469 41.0903 172.843 39.0553 172.843 36.5451C172.843 34.0349 170.469 32 167.54 32C164.611 32 162.237 34.0349 162.237 36.5451C162.237 39.0553 164.611 41.0903 167.54 41.0903Z" fill="white"/>
<path d="M208.786 41.0903C211.714 41.0903 214.088 39.0553 214.088 36.5451C214.088 34.0349 211.714 32 208.786 32C205.857 32 203.483 34.0349 203.483 36.5451C203.483 39.0553 205.857 41.0903 208.786 41.0903Z" fill="white"/>
<path d="M250.032 41.0903C252.96 41.0903 255.334 39.0553 255.334 36.5451C255.334 34.0349 252.96 32 250.032 32C247.103 32 244.729 34.0349 244.729 36.5451C244.729 39.0553 247.103 41.0903 250.032 41.0903Z" fill="white"/>
<path d="M43.8027 71.394C46.7313 71.394 49.1054 69.359 49.1054 66.8488C49.1054 64.3386 46.7313 62.3037 43.8027 62.3037C40.8741 62.3037 38.5 64.3386 38.5 66.8488C38.5 69.359 40.8741 71.394 43.8027 71.394Z" fill="white"/>
<path d="M85.0483 71.394C87.9769 71.394 90.351 69.359 90.351 66.8488C90.351 64.3386 87.9769 62.3037 85.0483 62.3037C82.1197 62.3037 79.7456 64.3386 79.7456 66.8488C79.7456 69.359 82.1197 71.394 85.0483 71.394Z" fill="white"/>
<path d="M126.296 71.394C129.225 71.394 131.599 69.359 131.599 66.8488C131.599 64.3386 129.225 62.3037 126.296 62.3037C123.368 62.3037 120.994 64.3386 120.994 66.8488C120.994 69.359 123.368 71.394 126.296 71.394Z" fill="white"/>
<path d="M167.54 71.394C170.469 71.394 172.843 69.359 172.843 66.8488C172.843 64.3386 170.469 62.3037 167.54 62.3037C164.611 62.3037 162.237 64.3386 162.237 66.8488C162.237 69.359 164.611 71.394 167.54 71.394Z" fill="white"/>
<path d="M208.786 71.394C211.714 71.394 214.088 69.359 214.088 66.8488C214.088 64.3386 211.714 62.3037 208.786 62.3037C205.857 62.3037 203.483 64.3386 203.483 66.8488C203.483 69.359 205.857 71.394 208.786 71.394Z" fill="white"/>
<path d="M250.032 71.394C252.96 71.394 255.334 69.359 255.334 66.8488C255.334 64.3386 252.96 62.3037 250.032 62.3037C247.103 62.3037 244.729 64.3386 244.729 66.8488C244.729 69.359 247.103 71.394 250.032 71.394Z" fill="white"/>
<path d="M43.8027 101.697C46.7313 101.697 49.1054 99.6618 49.1054 97.1516C49.1054 94.6413 46.7313 92.6064 43.8027 92.6064C40.8741 92.6064 38.5 94.6413 38.5 97.1516C38.5 99.6618 40.8741 101.697 43.8027 101.697Z" fill="white"/>
<path d="M85.0483 101.697C87.9769 101.697 90.351 99.6618 90.351 97.1516C90.351 94.6413 87.9769 92.6064 85.0483 92.6064C82.1197 92.6064 79.7456 94.6413 79.7456 97.1516C79.7456 99.6618 82.1197 101.697 85.0483 101.697Z" fill="white"/>
<path d="M126.296 101.697C129.225 101.697 131.599 99.6618 131.599 97.1516C131.599 94.6413 129.225 92.6064 126.296 92.6064C123.368 92.6064 120.994 94.6413 120.994 97.1516C120.994 99.6618 123.368 101.697 126.296 101.697Z" fill="white"/>
<path d="M167.54 101.697C170.469 101.697 172.843 99.6618 172.843 97.1516C172.843 94.6413 170.469 92.6064 167.54 92.6064C164.611 92.6064 162.237 94.6413 162.237 97.1516C162.237 99.6618 164.611 101.697 167.54 101.697Z" fill="white"/>
<path d="M208.786 101.697C211.714 101.697 214.088 99.6618 214.088 97.1516C214.088 94.6413 211.714 92.6064 208.786 92.6064C205.857 92.6064 203.483 94.6413 203.483 97.1516C203.483 99.6618 205.857 101.697 208.786 101.697Z" fill="white"/>
<path d="M250.032 101.697C252.96 101.697 255.334 99.6618 255.334 97.1516C255.334 94.6413 252.96 92.6064 250.032 92.6064C247.103 92.6064 244.729 94.6413 244.729 97.1516C244.729 99.6618 247.103 101.697 250.032 101.697Z" fill="white"/>
<path d="M43.8027 132C46.7313 132 49.1054 129.965 49.1054 127.454C49.1054 124.944 46.7313 122.909 43.8027 122.909C40.8741 122.909 38.5 124.944 38.5 127.454C38.5 129.965 40.8741 132 43.8027 132Z" fill="white"/>
<path d="M85.0483 132C87.9769 132 90.351 129.965 90.351 127.454C90.351 124.944 87.9769 122.909 85.0483 122.909C82.1197 122.909 79.7456 124.944 79.7456 127.454C79.7456 129.965 82.1197 132 85.0483 132Z" fill="white"/>
<path d="M126.296 132C129.225 132 131.599 129.965 131.599 127.454C131.599 124.944 129.225 122.909 126.296 122.909C123.368 122.909 120.994 124.944 120.994 127.454C120.994 129.965 123.368 132 126.296 132Z" fill="white"/>
<path d="M167.54 132C170.469 132 172.843 129.965 172.843 127.454C172.843 124.944 170.469 122.909 167.54 122.909C164.611 122.909 162.237 124.944 162.237 127.454C162.237 129.965 164.611 132 167.54 132Z" fill="white"/>
<path d="M208.786 132C211.714 132 214.088 129.965 214.088 127.454C214.088 124.944 211.714 122.909 208.786 122.909C205.857 122.909 203.483 124.944 203.483 127.454C203.483 129.965 205.857 132 208.786 132Z" fill="white"/>
<path d="M250.032 132C252.96 132 255.334 129.965 255.334 127.454C255.334 124.944 252.96 122.909 250.032 122.909C247.103 122.909 244.729 124.944 244.729 127.454C244.729 129.965 247.103 132 250.032 132Z" fill="white"/>
</g>
<circle cx="743" cy="127" r="95" fill="url(#paint4_linear_1_2520)"/>
<defs>
<linearGradient id="paint0_linear_1_2520" x1="952" y1="-70" x2="807" y2="448" gradientUnits="userSpaceOnUse">
<stop offset="0.626997" stop-color="#121535" stop-opacity="0"/>
<stop offset="1" stop-color="#FD603E"/>
</linearGradient>
<linearGradient id="paint1_linear_1_2520" x1="1059.65" y1="-28.5529" x2="959" y2="331" gradientUnits="userSpaceOnUse">
<stop offset="0.445804" stop-color="#121535" stop-opacity="0"/>
<stop offset="1" stop-color="#FD603E"/>
</linearGradient>
<linearGradient id="paint2_linear_1_2520" x1="1352.06" y1="-152.941" x2="1190" y2="426" gradientUnits="userSpaceOnUse">
<stop offset="0.590213" stop-color="#FD603E"/>
<stop offset="1" stop-color="#121535" stop-opacity="0"/>
</linearGradient>
<linearGradient id="paint3_linear_1_2520" x1="1223.88" y1="-139.518" x2="1142" y2="153" gradientUnits="userSpaceOnUse">
<stop offset="0.680833" stop-color="#FD603E"/>
<stop offset="1" stop-color="#121535" stop-opacity="0"/>
</linearGradient>
<linearGradient id="paint4_linear_1_2520" x1="905.059" y1="-356.941" x2="743" y2="222" gradientUnits="userSpaceOnUse">
<stop offset="0.673051" stop-color="#FD603E"/>
<stop offset="1" stop-color="#121535" stop-opacity="0"/>
</linearGradient>
</defs>
</svg>
