<svg width="21" height="20" viewBox="0 0 21 20" fill="none" xmlns="http://www.w3.org/2000/svg">
<path d="M14.875 14.375H5.95313L3.77344 2.39063C3.74793 2.2471 3.67307 2.11701 3.56179 2.02285C3.45051 1.9287 3.30982 1.8764 3.16406 1.875H1.75" stroke="#1A1A1A" stroke-width="1.5" stroke-linecap="round" stroke-linejoin="round"/>
<path d="M6.75 17.5C7.61294 17.5 8.3125 16.8004 8.3125 15.9375C8.3125 15.0746 7.61294 14.375 6.75 14.375C5.88706 14.375 5.1875 15.0746 5.1875 15.9375C5.1875 16.8004 5.88706 17.5 6.75 17.5Z" stroke="#1A1A1A" stroke-width="1.5" stroke-linecap="round" stroke-linejoin="round"/>
<path d="M14.875 17.5C15.7379 17.5 16.4375 16.8004 16.4375 15.9375C16.4375 15.0746 15.7379 14.375 14.875 14.375C14.0121 14.375 13.3125 15.0746 13.3125 15.9375C13.3125 16.8004 14.0121 17.5 14.875 17.5Z" stroke="#1A1A1A" stroke-width="1.5" stroke-linecap="round" stroke-linejoin="round"/>
<path d="M5.38281 11.25H15.1953C15.4875 11.2509 15.7706 11.1488 15.9949 10.9616C16.2193 10.7744 16.3704 10.5142 16.4219 10.2266L17.375 5H4.25" stroke="#1A1A1A" stroke-width="1.5" stroke-linecap="round" stroke-linejoin="round"/>
</svg>
