<svg width="25" height="24" viewBox="0 0 25 24" fill="none" xmlns="http://www.w3.org/2000/svg">
<path d="M8 21.75C8.82843 21.75 9.5 21.0784 9.5 20.25C9.5 19.4216 8.82843 18.75 8 18.75C7.17157 18.75 6.5 19.4216 6.5 20.25C6.5 21.0784 7.17157 21.75 8 21.75Z" fill="black"/>
<path d="M17.75 21.75C18.5784 21.75 19.25 21.0784 19.25 20.25C19.25 19.4216 18.5784 18.75 17.75 18.75C16.9216 18.75 16.25 19.4216 16.25 20.25C16.25 21.0784 16.9216 21.75 17.75 21.75Z" fill="black"/>
<path d="M4.46562 6.75H21.2844L18.8094 15.4125C18.7211 15.7269 18.532 16.0036 18.2711 16.2C18.0103 16.3965 17.6922 16.5019 17.3656 16.5H8.38437C8.05783 16.5019 7.7397 16.3965 7.47886 16.2C7.21803 16.0036 7.02893 15.7269 6.94062 15.4125L3.54688 3.54375C3.50203 3.38696 3.4073 3.24905 3.27704 3.15093C3.14677 3.05282 2.98808 2.99983 2.825 3H1.25" stroke="black" stroke-width="1.5" stroke-linecap="round" stroke-linejoin="round"/>
</svg>
