<svg width="25" height="24" viewBox="0 0 25 24" fill="none" xmlns="http://www.w3.org/2000/svg">
<path d="M3.5 6.75H5.66562C6.61941 6.75117 7.55918 6.9797 8.40699 7.41665C9.25481 7.8536 9.98624 8.48638 10.5406 9.2625L14.4594 14.7375C15.0138 15.5136 15.7452 16.1464 16.593 16.5833C17.4408 17.0203 18.3806 17.2488 19.3344 17.25H22.25" stroke="black" stroke-width="1.5" stroke-linecap="round" stroke-linejoin="round"/>
<path d="M20 4.5L22.25 6.75L20 9" stroke="black" stroke-width="1.5" stroke-linecap="round" stroke-linejoin="round"/>
<path d="M20 15L22.25 17.25L20 19.5" stroke="black" stroke-width="1.5" stroke-linecap="round" stroke-linejoin="round"/>
<path d="M14.3467 9.42188L14.4592 9.2625C15.0136 8.48638 15.745 7.8536 16.5928 7.41665C17.4406 6.9797 18.3804 6.75117 19.3342 6.75H22.2498" stroke="black" stroke-width="1.5" stroke-linecap="round" stroke-linejoin="round"/>
<path d="M3.5 17.25H5.66563C6.61941 17.2488 7.55918 17.0203 8.40699 16.5833C9.25481 16.1464 9.98624 15.5136 10.5406 14.7375L10.6531 14.5781" stroke="black" stroke-width="1.5" stroke-linecap="round" stroke-linejoin="round"/>
</svg>
