<svg width="11" height="14" viewBox="0 0 11 14" fill="none" xmlns="http://www.w3.org/2000/svg">
<path d="M1.19075 12.1082C1.19075 12.8874 1.82825 13.5249 2.60741 13.5249H8.27406C9.05322 13.5249 9.69072 12.8874 9.69072 12.1082V5.02489C9.69072 4.24572 9.05322 3.60823 8.27406 3.60823H2.60741C1.82825 3.60823 1.19075 4.24572 1.19075 5.02489V12.1082ZM9.69072 1.48323H7.9199L7.41698 0.980318C7.28948 0.852819 7.10532 0.774902 6.92115 0.774902H3.96033C3.77616 0.774902 3.59199 0.852819 3.46449 0.980318L2.96158 1.48323H1.19075C0.801171 1.48323 0.482422 1.80198 0.482422 2.19156C0.482422 2.58115 0.801171 2.89989 1.19075 2.89989H9.69072C10.0803 2.89989 10.3991 2.58115 10.3991 2.19156C10.3991 1.80198 10.0803 1.48323 9.69072 1.48323Z" fill="black"/>
</svg>
