<svg width="41" height="40" viewBox="0 0 41 40" fill="none" xmlns="http://www.w3.org/2000/svg">
<rect x="0.246582" width="40" height="40" rx="8" fill="#FDF4ED"/>
<path d="M18.7105 20.8322C18.6625 20.8322 17.6065 20.8322 17.1265 20.8322C16.8705 20.8322 16.7905 20.7362 16.7905 20.4962C16.7905 19.8562 16.7905 19.2002 16.7905 18.5602C16.7905 18.3042 16.8865 18.2242 17.1265 18.2242H18.7105C18.7105 18.1762 18.7105 17.2482 18.7105 16.8162C18.7105 16.1762 18.8225 15.5682 19.1425 15.0082C19.4785 14.4322 19.9585 14.0482 20.5665 13.8242C20.9665 13.6802 21.3665 13.6162 21.7985 13.6162H23.3665C23.5905 13.6162 23.6865 13.7122 23.6865 13.9362V15.7602C23.6865 15.9842 23.5905 16.0802 23.3665 16.0802C22.9345 16.0802 22.5025 16.0802 22.0705 16.0962C21.6385 16.0962 21.4145 16.3042 21.4145 16.7522C21.3985 17.2322 21.4145 17.6962 21.4145 18.1922H23.2705C23.5265 18.1922 23.6225 18.2882 23.6225 18.5442V20.4802C23.6225 20.7362 23.5425 20.8162 23.2705 20.8162C22.6945 20.8162 21.4625 20.8162 21.4145 20.8162V26.0322C21.4145 26.3042 21.3345 26.4002 21.0465 26.4002C20.3745 26.4002 19.7185 26.4002 19.0465 26.4002C18.8065 26.4002 18.7105 26.3042 18.7105 26.0642C18.7105 24.3842 18.7105 20.8802 18.7105 20.8322Z" fill="#FD603E"/>
</svg>
