<svg width="12" height="12" viewBox="0 0 12 12" fill="none" xmlns="http://www.w3.org/2000/svg">
<path d="M6.24118 9.43049L8.99961 11.1779C9.35224 11.401 9.78974 11.0689 9.68517 10.6572L8.88849 7.52255C8.86598 7.43523 8.86858 7.34334 8.89598 7.25743C8.92337 7.17152 8.97446 7.09509 9.04336 7.03692L11.517 4.97849C11.8416 4.70811 11.6745 4.16867 11.2567 4.14155L8.02661 3.93155C7.93965 3.92538 7.85622 3.89464 7.78605 3.8429C7.71588 3.79116 7.66184 3.72055 7.63024 3.6393L6.42536 0.605675C6.39256 0.519461 6.33432 0.445255 6.25837 0.392897C6.18243 0.340538 6.09236 0.3125 6.00011 0.3125C5.90787 0.3125 5.8178 0.340538 5.74186 0.392897C5.66591 0.445255 5.60767 0.519461 5.57486 0.605675L4.36999 3.6393C4.33845 3.72064 4.28444 3.79133 4.21427 3.84315C4.14409 3.89497 4.06063 3.92578 3.97361 3.93199L0.743552 4.14199C0.326177 4.16867 0.158177 4.70811 0.483239 4.97849L2.95686 7.03736C3.02569 7.09549 3.07672 7.17185 3.10412 7.25767C3.13151 7.34349 3.13415 7.4353 3.11174 7.52255L2.37324 10.4297C2.24768 10.9237 2.77311 11.3222 3.19574 11.054L5.75949 9.43049C5.83155 9.38468 5.91516 9.36035 6.00055 9.36035C6.08594 9.36035 6.16956 9.38468 6.24161 9.43049H6.24118Z" fill="#FD603E"/>
</svg>
