<svg width="41" height="40" viewBox="0 0 41 40" fill="none" xmlns="http://www.w3.org/2000/svg">
<rect x="0.246582" width="40" height="40" rx="8" fill="#FDF4ED"/>
<g clip-path="url(#clip0_1_483)">
<path d="M23.9155 12H16.5776C14.1894 12 12.2466 13.9429 12.2466 16.331V23.669C12.2466 26.0571 14.1894 28 16.5776 28H23.9156C26.3037 28 28.2466 26.0571 28.2466 23.669V16.331C28.2466 13.9429 26.3037 12 23.9155 12ZM20.2466 24.3749C17.8342 24.3749 15.8717 22.4123 15.8717 20C15.8717 17.5876 17.8342 15.6251 20.2466 15.6251C22.6589 15.6251 24.6214 17.5876 24.6214 20C24.6214 22.4123 22.6589 24.3749 20.2466 24.3749ZM24.7261 16.6569C24.0132 16.6569 23.4333 16.077 23.4333 15.3641C23.4333 14.6512 24.0132 14.0713 24.7261 14.0713C25.4389 14.0713 26.0189 14.6512 26.0189 15.3641C26.0189 16.077 25.4389 16.6569 24.7261 16.6569Z" fill="#FD603E"/>
<path d="M20.2465 16.563C18.3514 16.563 16.8096 18.1047 16.8096 19.9999C16.8096 21.8949 18.3514 23.4368 20.2465 23.4368C22.1416 23.4368 23.6833 21.8949 23.6833 19.9999C23.6833 18.1047 22.1416 16.563 20.2465 16.563Z" fill="#FD603E"/>
<path d="M24.7258 15.0093C24.5303 15.0093 24.3711 15.1685 24.3711 15.364C24.3711 15.5596 24.5303 15.7187 24.7258 15.7187C24.9215 15.7187 25.0807 15.5597 25.0807 15.364C25.0807 15.1683 24.9215 15.0093 24.7258 15.0093Z" fill="#FD603E"/>
</g>
<defs>
<clipPath id="clip0_1_483">
<rect width="16" height="16" fill="white" transform="translate(12.2466 12)"/>
</clipPath>
</defs>
</svg>
