<svg width="41" height="40" viewBox="0 0 41 40" fill="none" xmlns="http://www.w3.org/2000/svg">
<rect x="0.246582" width="40" height="40" rx="8" fill="#FDF4ED"/>
<g clip-path="url(#clip0_1_485)">
<path d="M28.2424 28L28.2464 27.9993V22.1313C28.2464 19.2606 27.6284 17.0493 24.2724 17.0493C22.6591 17.0493 21.5764 17.9346 21.1344 18.774H21.0878V17.3173H17.9058V27.9993H21.2191V22.71C21.2191 21.3173 21.4831 19.9706 23.2078 19.9706C24.9071 19.9706 24.9324 21.56 24.9324 22.7993V28H28.2424Z" fill="#FD603E"/>
<path d="M12.5107 17.3179H15.8281V27.9999H12.5107V17.3179Z" fill="#FD603E"/>
<path d="M14.1679 12C13.1072 12 12.2466 12.8607 12.2466 13.9213C12.2466 14.982 13.1072 15.8607 14.1679 15.8607C15.2286 15.8607 16.0892 14.982 16.0892 13.9213C16.0886 12.8607 15.2279 12 14.1679 12Z" fill="#FD603E"/>
</g>
<defs>
<clipPath id="clip0_1_485">
<rect width="16" height="16" fill="white" transform="translate(12.2466 12)"/>
</clipPath>
</defs>
</svg>
