<svg width="41" height="40" viewBox="0 0 41 40" fill="none" xmlns="http://www.w3.org/2000/svg">
<rect x="0.246582" width="40" height="40" rx="8" fill="#FDF4ED"/>
<g clip-path="url(#clip0_1_481)">
<path d="M28.2466 15.039C27.6516 15.3 27.0176 15.473 26.3566 15.557C27.0366 15.151 27.5556 14.513 27.7996 13.744C27.1656 14.122 26.4656 14.389 25.7196 14.538C25.1176 13.897 24.2596 13.5 23.3236 13.5C21.5076 13.5 20.0456 14.974 20.0456 16.781C20.0456 17.041 20.0676 17.291 20.1216 17.529C17.3946 17.396 14.9816 16.089 13.3606 14.098C13.0776 14.589 12.9116 15.151 12.9116 15.756C12.9116 16.892 13.4966 17.899 14.3686 18.482C13.8416 18.472 13.3246 18.319 12.8866 18.078C12.8866 18.088 12.8866 18.101 12.8866 18.114C12.8866 19.708 14.0236 21.032 15.5146 21.337C15.2476 21.41 14.9566 21.445 14.6546 21.445C14.4446 21.445 14.2326 21.433 14.0336 21.389C14.4586 22.688 15.6646 23.643 17.0986 23.674C15.9826 24.547 14.5656 25.073 13.0316 25.073C12.7626 25.073 12.5046 25.061 12.2466 25.028C13.6996 25.965 15.4216 26.5 17.2786 26.5C23.3146 26.5 26.6146 21.5 26.6146 17.166C26.6146 17.021 26.6096 16.881 26.6026 16.742C27.2536 16.28 27.8006 15.703 28.2466 15.039Z" fill="#FD603E"/>
</g>
<defs>
<clipPath id="clip0_1_481">
<rect width="16" height="16" fill="white" transform="translate(12.2466 12)"/>
</clipPath>
</defs>
</svg>
